<mxfile host="www.draw.io" modified="2019-12-10T06:08:14.751Z" agent="Mozilla/5.0 (Windows NT 6.1; Win64; x64) AppleWebKit/537.36 (KHTML, like Gecko) Chrome/77.0.3865.90 Safari/537.36" etag="KxE0S0R5L0eqtfif8g1j" version="12.3.9" type="github" pages="1">
  <diagram id="rvMFAYr6_yPRmXiKOcCn" name="第 1 页">
    <mxGraphModel dx="854" dy="478" grid="1" gridSize="10" guides="1" tooltips="1" connect="1" arrows="1" fold="1" page="1" pageScale="1" pageWidth="1169" pageHeight="827" math="0" shadow="0">
      <root>
        <mxCell id="0"/>
        <mxCell id="1" parent="0"/>
        <mxCell id="3dIoNDV1uIik2_dfb_1X-1" value="" style="image;html=1;labelBackgroundColor=#ffffff;image=data:image/png,iVBORw0KGgoAAAANSUhEUgAAADwAAAA9CAYAAADxoArXAAAAAXNSR0IArs4c6QAAAARnQU1BAACxjwv8YQUAAAAJcEhZcwAADsMAAA7DAcdvqGQAABW4SURBVGhDzVsHeFTl0t7oRQWuSAsISBEEDaSRhASSkE3vvWc3SzYhvS7pDUhCAkjvoUgTpLeL9CoIFopIkyqhhauCIoIUFd5/5tsThbAJCfzP1XmeeU5O+873fjPzzsw5Gxn+ofLtt99ixYoVKCoqgr+vF0JD/aFWh/2pMaR8bOTIkaiquijd9Wz5xwH+/feH2LhxM7w83BAcZI/QYHuEBNlAqbBHlMrpCVVG2CPAbyA8Pe0xe/YcaYT65R8FeO3atYiKikBAgCNZdQBiY1wQN9gV8bFukro/pbExroikxZDbmdP9/5FGqlv+UYAzMzNhatIdAf79MUjliORETwLsJkDVpXw+Ic4dinA5HBwG4OjRY9JoukXm6+sDX19fDBmShuLifBQW5r6w5ufnIi8vB+vWrcGdOz/ijz/uS4+rXy5cuIBBg5SwG9AHAyzehbX1e4gf7C6srAvs45oY7wEXJxPMmzdfGk23yIyN+1AMuMHMzBjJyTHQaBKQkRH/QqrRJCIpSQ1LSwsCEI59+7ZLj3u2DB06DHPHp+PA5gkI9bElEKZIiHcXVqwPuADsbEqxPFsaSbfIgoMDaEJbyTLZNEFTiqEgxMWFC42NDXtu5fv9/Fzg6NifmDZbelz9cubsOWQkKnHj2GLgh01YP68Y3d5uhxiK5aBA6z/j+WnAbuKchXlvfPPNN9JoukUWFaXE2bNfYe7c6fD3d8by5ZNQXp5B7h1HGi9tG6vxZKkEGrMCc+aUYdq0MdLj6pfC4kLkpgThQdUa4OZ2XDu8AO72ZjAx6gZbq94U329DPchJxO3jgJm8Avz6IzExAQ8fPpRG0y0ylUpJq3KAJjaF4jgVV66cJWsnU/wtxfr1y0mXNVo3bFiBCRNKafHm4tKlU9i5c6P0uPrl8OFDCPb3RkWeCrtXj8Ivp5fh/L5Z2L2iAkd3TEFBahDM+nYXZJYQ5yExtRuSEjzQz/w98tT90kh1y5+AZ82aiOHDh+PWrZsYNaoYt2//8kK6det6AvwhEdYftH9belz98ujRI0ybUYk+vbri0KYJeHhpHXDtYzy8rN1e+2oB7G2M4OpiKlg5RuVApOYCH29LKkKCKIf/Lo1UtzwBuLS0FD//fBPjxpVKp59f9uzZRpXSh9KeFkxD5BdanKjICOxaVo47Z5YDV9cDNzbj0RXKsbd3Ys3MHLzVtjn0WzZHhy7t8VaHlvB0Hogjhw5JI9QvTwAuKSkRgMeOLXlmLDxLdu/e8lyAWY4c+QrDCoagYqgG2Snh2LN6JB5Wrcb62TlkTTleNbeFzC0CssAEyOz80GOAHNHJqZg2eTLOnjwhjaJb/pGAOQyuXq1G9bVrOHH8OAZH+MPLtT8627uiSVAiZAmlkKWNhiz9fciSK/CyOg+vKjRoq0yHsXcQ5s6aiUe//yaN9qT8IwHXyG/374nmoIOtM/S8oiCLLoYslYGO0QJOHUVbAp3B+7Slfb2YQrT3UyElI4MfKo30l8hiYtQ4c+YwAZ5AMVxGpPUzMewI6fTzy/79u58A3Fi5R8Snio1Hy8AY6MUO1YJ7HKgu5XMMPmUkmtu6Yc/OHdJof4nMzc0VJ058gUWLZlP+LCQL/0Q5NJOsfhynTp14Lj19+oQYb+XKRbh37zbl+ZONsjBbdnBiEl71UmmBPAtobdWMhUyZiQCFShrxL5G9+uqrsLe3RUJCNFU0Ydi7dzXl4XhUVGRResp+bi0qSsCCBWOxefOHqKwcKz2uYVJQXITXPIiUePIcp7UBNURpkf5NVt6/d680qlZkHh4uVEeboFmzpujWrSNcXCwxcKApFe6GL6Q2lC8dHS1IzVFW1rDSkuWzT/ei1UA34ZbPDZZVMw4yv8GYVVkpjawVWVZWKlU4e2FrSyzY+U2qp41gZWX8gmpCgM1oTDN0pUV0dJZj1erluHz5HG7erCae+IEerdvFk9LToReWTrFIbqkLSEOVYzkig7xttDSyVmQKRTjVumOpUgmEh8dAYuhccmfKgc+tmRgzJhfZ2bFQKHxg3d8Ywd4DkZcWQV2PGjt27sSVq9/ixMnDFN/3pGlo5cKZ0+hg7ai1ri4QjVGO+8hspGXnSqNrRXbixAmyiCXatGkFb28nDB4cRhP1h1L5tEZHhyIuNhxqdYj4Oz5eAXVUMCIjtecjIwPEvdbWfeFIYdGqVQv0N3sXY4vVOPdpJQ5unoj3SzJQUpSGwuw4qBQhmD9/gTSVR1CoiZFDkrST1QWiMcrhoM6HT0SkNL5WxBuPkJAQWFiYwsvLGcuWUbG+ew127Fj5hO7atZqYdxreH1OCBQunUyc0GeUji/DRkpnUHKzC9u3a6z7Zs5YWIRSmRj3Rrl1btGndAsoAOVbOzMP2paXITQqEvL8hrPr2Qr++vcWLuL179uDD+fPQ1NGfJtoINq5POS9TOjN3dhdAa0QA3rVrFzw9Pah/9UBwsC9mzBhDgCbhgw8mCuW/Z80eR4QmR0QQNduDQ+Bg3x++HnaIUvohLy8FixbPwLx5k8liU4ikcpGcpKZ2TY3wcH8qB11gZ2sBezsrdO3SEa+80gRvtGiO7t27UGaIgJV5X3TubwdZfMlf6Ye3mRMbl45YOXb5vqxJ4l5TVy8BtEYE4N9++w0HDhwgd45GYKAX3N3thHsqlY8puW2vnt2weIoGp/dWYuviEhzbNgn/mVeIFi1bwMnRGsowT6hVAYiJDsHgmFARHjG0jSR3DwxyR2CAO3mRA8ypUU9LS0S0SgVPV0e88noLyIKTtZPlSbN12CWtXMktC7R/1wZWW5nkGGQ8VWNuwVRje9L99uhAi7pkwWzs2LpBdFNPvMS7ePEi5c6ZSElRUNVFsVaS/qcyGTk4WGHtnHzg193UwWwFftyKBxdWIT3GC+3f1IdBv76wtDaHM10X5OOAGKUv4qICoFZ4QxHijhA/J/h7yWFlZoDoKBUSkpNhJXeAnq3XX3GbRjpkPGQmNpB16Pqk1XUp38cWjc6DbKA7mhjK0VaegY6+49EpYAq6Bc+GRfJamPhkYc/unU+/teR++MCBT3Ho0Gek+//Uw4c/x8KFc5EQHYFxw2NxeMskXPziA2rSl0JDgF+2dEYTpQZNgxLwb/9otPSMgL6jL/QdvNHGJRCt3EPR0luJFn5qNCV9IzwZrdVZaB6ZITUDkhV58q6hkLXpAFlYav1gNbQwiXSvtQteMXREO+dCvBO7BX1yz8Gw8DKMiqphNOw7GJXcwDtJe+EfSvW4hPMJ4W5Fl/7666+4UFWFj9evxbjRZcjVxMHFzhSt+1G7llRBLjWZrEMTTqekn0ITYuvEDSelbUIZTa5cdDci7bCyNRkQK+9nEoBgYum2BJaKBlEi1gWYF2ZQJvQM+qGdYz56JXwCw/wqAc649EcYl1ynv0mH/yD+Ni79CX3slboBP0vu33+Aa9f+iwMHD1Eq8yVi8Ia+sx9ecgiAzD+WJpKjtRp3NkMmaCfHmk0xxnEmlPZ5y8fZhXl/UC5krfQhk/tq41kXWD6WSWP6q9HkXSqWAiphWHCRQDHIG2TR77VWraUmBLi3/DkB1wg3BJcvXxHfdvZ//jmWrFyFygWLkDqsDK7RibBVqPG2vQfelHuirXMAXpZ7Q+ZEhOJJTYGPmiYdB1koua1yCBUJWZB1ew+yniaS9XUQFXsEL4STP5r1dkH3qHUwGvpdvUCFkpWNiq+h9wC/FwNcWx4S21d9ex4fr16FYYV5sHF2QWfz/mhnaIbWXXrgPWMT8dI/Sh2NgqIiTJg8DRNnzkbZpKnIHDGaiGwQXnanpoE9oTZYVq6PvSLxurEf3k3eD+PhktvqAvmY8nV98s+jp5nL/y9gluWLF6GXVxA6JRWjWUwBmiSV4V/xw/CSQoPmocloHxKHjh4hMA+MgK8qGuGqKIwsKcG6JYtROEQDPTsfLRGJNCOFQo3b0/GXe1qgZ+w2mJTdJMvVY9XHlD3AIPskjAY8J+DTx47i8092YcemDVix6EOqvsZAk5OL6MRk2Dg5Q68jpRNbcl/x3ikesnBi4iiKT27kk4i4yGX1ksvxSkIJmvIbivgCvDM4E286ElhDK21KYu1HdbVjoNb1Y4ogsyfWt0kTpNRQsKx8fc/UL6GMonEkDA2W0aNHw9g3DD2CotBVkYAOkWloqUhH04gUNKF4bBKRRm43iFJLOCV/AmBFq2pmD5kpMXmN9pVDZulE6cRDG9PedL1KIjpaAJmCYjqAFopjnYnQyhmyPhZo0tkI76UfEkysC1hdajziFjr7TcbypUsaA/gRFn+4EK0dfKHHqSaR0gxbK1XqbER6IaKpIRs+x2mJrcogoqgwUGYSSVFFxUzuTTnRXUGAyILW7nQ8RRujTEqiCKHxkmlsTmcJ9LyehujoWg7jsp90gqpTyRMMibAM5JH48fr3DQf83bVq9JCTtRgAxxdPiks+AVRSnuTj4Pk8X1cDIo2Vz9E1zMTk1sKqcTQmL2ANOf05BinHLxUyrxv7E/FQnmXG1QWsDuUF6h67FUOy8gjFo4YDvnT+HF6zIFesrzHnnMtW0nXuca0B8/ii8H7t6/g4Lca/ephRBbVVFA+6QNWt3xPgm+jimIXP9n0icDQYcPXFKjTrRx2NzvxIkyU2lnlQYldlE3ACzcUBT7j2tQ3VmobByBId3UcS2GfkWh3K6cgg5xQc/VT47YH2ZUPDXbr6Cpr3tZYsUcsafIxSRqs+5uhjR8zKDOtFDM2di6iiKK+y9YV36LBkbeXxNLRY/agRsE3T1sWNdGWjYf8VZMXNw8zK6RKKxgC+dg3NjS2lSekATCTVw84VEaERaOtQhLYu+XjNKgB6FsTG1MVwKShTExNzg1+TX9n9a7d+HN9cU9M9Lc0j0Tv3rFRJ6QKlS/9Li3MdphV3YVR2Cz1sFLh29ZKEohGAr//wA1qbD5DKvtpW0u53cfTC8iUfwdI9Bu2sU9DaaQTe9J+OjgHT0MYhA00t/PGSCfFAv4Hk/mGUfiiFJRKTs/uLAoO27A2uwXjdyAe9NUe1OVcnsKeVY9x05D3x99uq1Wg3IBa5BcVcA0soGgH4pxs30NmG3JW7nacAkxITt5V74GrVBRw/cRxWdK0lFQpd+wWgjWU83vSeih6Dt+DtmM3oHD4fbYhImhl74l+mlGPNiBvsqScOp7qacnizPm7olfyZaAhqg3pSyZoU1ybkugy0d85pvOU/hZ4XSx3UUHQycsK50yclBFppMOBf79yGhScVAUkjdAMm92zl4IXrlL4ePXoIG2sr5OVkITU1FeGRapj0d0bPASEw8CpA1+C56Jm4B+9qjuPdtC/RTbWMFmQUXutpi5fe0Ec3xTKYjLxPIO7CpPy2lp05hslV2b1537j0Jkwq7tD5X9ArZR/aOw8VQDt4jELnkPlEdCNg7xmKO7/ckhBopcGAWVTxiZBFU4nHRFQ7jglwcwc/VE6biiFDhsDBwQEjRpSjrKwU5SNK4ePljtGjRuLzLw5g2pzFCEkYhj7eeQR+NnqlfkE59gK6hC1GazMV9G0z0E6eg05eY9BdvR4GmccILBUQQ6vFdQbZ3+A9zdfCbfVtNdC3TkUnCh0G2skpD/ahGkz/4COcPnP2qY+CjQI8+v33oWdPVo6nyocJp6a35fjLmw49qpoG2tggMTEReXl54mska0VFBaKjo5Gdrf0C8evtW7hy6QIOUj/9wcJlGJxZASu/TBh65eAt53y0dynFG/JitLAtgL5dLjG1Bu3tstHOLos0k3QI2g0kdShEJ5/JZM1R6GafjPDEoViyaj21q9+KZ+iSRgHmd17l4ybCKTIazcwp7qw9IbOhJqE/sTC/4ulmAH8/P0wYPx5jqKEoLy8XvypgHTFiBLy8vPD1119Lo2nl3t07xKKXcYHaysNfHcGKdZvJFUNg6xEBY4cIai090d5CQe4aB315Ll63orrdPBmtrDPQeWAS7INTMXbqfHy6/3NUX7mEB/fvSiPrlkYBrpGDX36Bfv0sYEf9rmdAEPxDw2Dn4Ii2bfXh6uqKsLAwBAUFISUlRViXv/FqNBoYGRkJi9cnf/z+AKnJiVi9agX27duHgMBgrN+0HTPnL0Ffa2cYU24OVsahUw9DzJ63CN999x1u37pJdzbs62S9gPlTyLFjx4RVeLt//35hKZVKBQd7e6QRoNLhw1FWMhzZmUPwzjs9MH36dCxcuFCA5DgOCAiAj48PzMzMkJOTI9ydLc5d18aNG8WvZmsL/wTxyy+/RHX1VUQNGoSNGz5GeloKystKsH3rZsyaOR0Tx4+l5ydj584d4jVzQ6VOwEeOHBGTCw8Ph0KhEFulUonY2Fgxofz8fPGrn7KyMq3SQgQGBmLYsGHi/ps3b+Ls2bPgH4pt2bIF3bt3x6ZNm7Bu3Tph9UmTJmHGjBliDF4ADgG+jn9+yM84fPgwzp07B2dnZ6SlpWHb9u3i3uTkZHEPc8LEiRMhl8vFh4SGSp2AJ0yYABcXFxQWFgo3HDp0qPjtck08staQEisfZ7Bubm7CEx4X9pTi4mJkZGQI5YXMyspCQkKCOD5lyhTMmjULM2fOFPv8GujkyZMC8KpVq7B582bBB7xQ7ObV1dXiON/P8/z++++lJz1b6gTMrlZQUABvb2/x7YmtyiD5ofxwdtlRo0YJZbCsfI6vY0vXdrMbVLjwfVOnThXkx5bkUFm5cqWYdFJSknB5XmA+xiD4HgYeGhoKJyenJyzJXxF4jrdu6WbjuqTeGOaHcuxyTLIrMXg/YmGOSVbe9/f3F2AZDFs4Pj4eBgYGT30KZWEAP//8s7SnFX7X/QOVrVeuXIFarRbgjh49imnTpok0xr+K5wWYM2eO8CQ2wty5c3XGfkOkXsA1cvfuXVy+fFnE4/Hjx8UicIzt3LkTHh4ewgVZOe0w6A0bNjTqNx28EByX7CF8L1dn7Dn893hKccz2vKBr1qwRRLdo0SLk5uYKj+C/q6qqpJGeLQ0CXJdwFXP+/HnhdrwQZ86cEWmiIT8BrJE9e/YgLi4OH330kbAkExZvr1+/LsKCxzt16pSIWSZHBs9kt51IbNu2bZg3b57wBC50li1bJgxTn7wQ4BcVdlsuQ5mUOI554pyO2KNqC7v+pUuXxFfOBQsWCK5gKy9dulSQJC8A/1aajzPx8Yd+XfK3AOZ45clyWuGJpqenC9dlMmuIcMpj0tuxY4cYg+/nvM5pjcON0xi7vy75WwAz21dWVgo3ZZLj/Mou3Fjh0Klx+dWrV4tx2cLs9kxyuuR/DvjBgweC8dkyXNAwEd6/37D/iahPOAzYc2JiYjB58mTB+Lrkfw6YJ8aTYnY1NTV9qpl4UeHSlnN9DfnVlv85YGZ2JqfFixcL8uF6+3ncuS7h6owZm6u5Tz7Rvpp9XP6WGD548KDopjh3M6M2pvh/lvCHe05NTIC6ip+/BfDfJ8D/AUgQOxaKPJufAAAAAElFTkSuQmCC;" vertex="1" parent="1">
          <mxGeometry x="111.5" y="217.5" width="60" height="50" as="geometry"/>
        </mxCell>
        <mxCell id="3dIoNDV1uIik2_dfb_1X-2" value="" style="shape=image;verticalLabelPosition=bottom;labelBackgroundColor=#ffffff;verticalAlign=top;aspect=fixed;imageAspect=0;image=data:image/png,iVBORw0KGgoAAAANSUhEUgAAADUAAAAtCAYAAAAOYyOGAAAAAXNSR0IArs4c6QAAAARnQU1BAACxjwv8YQUAAAAJcEhZcwAADsMAAA7DAcdvqGQAABbfSURBVGhD1Zp3WFVX1ofJZCZfZmJmkpjRGGeMGsVgw46gsYuiIL2IgihFmoL0JgiKNEGaqGCkCtJsKIgIttg7AgoqQUk0xZYYUIzyfnsfMIkxk5nMP9/zrfv8PPfce+45+z1r7bXWPqjC/7G13rvHZ0ePcqywkOzoaEIXLGDplCkE6umxRexfPHSIH1pbO4/+z+zfQj169IhWcdLHjx/z5MkTfvjhB549e0Z7e3vnEf+d3b95k11eXoSOHo3OP//JiG7dUP/b3xjy2muoq6gw8o9/ZKzYn/j++5hOmEBxTk7nL/+9/Uuou3fvEhwczMKFC3Fzc8N92TKWCXl6euLt44Ovry/+/v4EBgayfPlyVqxYQVhYGKtWrSIiIoKYmBji4+NJSkpi/fr1ZGZmUl9fr5z7wa1bxE+ejMUbb2D2yivoCQgjoblCVkILhKw738vPDP/wB+b06MEqce02cUOlSe+1iTGKO6zs/9x+FUpe3NHREXV1dfREGOzZs4eKffuo3FvG/r2lVAh1bH/arygvU/al9pWVUl5ayt7SPewuKaGoqAgXFxdlK+2IgNQTAx0tBrxIyEHI8Tckv5fHmYubEGtgwJrZs3EYPx7LsWNZNn06Rz/5RDnvc3sJ6uTJk9jY2JCcnIyzszMmJiY0NDSQnLKeyHUbiVmfRsy6VKENxCStZ03iOmISklmTkESsUFx8IrFr44mNjWVNTDRpqak0iJskPVtcXKxcY7fw6gAxyLFCS4QWC8mB/5aeA86VXhPetRQyENIU+1O6d2e/GO9zewHq22+/JTQ0lLS0NK5du6aEkpGREZeqLzJmqg4fRpailnIUteTDqCUdYkDCQT6Mq0JVSC2+ErW1UvtRi6tgoJBqxC60TBZQd6lagdonvC3t83PnmNarF73EIO2EJJgc8L+Dk8cMFBok5Nz5mY3QCKHp773HjVOnlPO/ACXnkbz4UZGNmpubiRbZR19fn+qLFxg5aRo9UmvoXfQ1vQtv0yv/NuPK7mB3+ntmVt4T+7f4QKh3we0OFX5Fz6xGBs+x4uLZ07i7u/Ppp592XgkSQ4J4VQymh9BkITmH5KBdOiXf/xLKSUhN6P3OfXmMhDMW+rvw2mYRWdJegHrw4IGSFOTFP/vsM9atW4euri61ly4xZdYc/rH+PKrb79Cv+Csx6C+xOPqQnG9gWXUrfQTEh0Vf0V98p2jbN/Te0sQwfSvOnzmlhPLZs2c7LvS0DYf5ZoxVVyNy2SJmjR7KkLfeVEJylNAUIQnpKvTcI88B5gi9IyQ9JD0rJefbW0IL+/dXTv8CVEtLi5IgDhw4oEClp6ejo6NDXW0NesZmvB9/VIHqLbzUM+8Wc49+R94d8Kl5hOPZFvxqHzNo+1f0E8D9i4VHsxsZpjeXsydPKFA1NTXKdfbv2UHff76Pn4MF313YQ23pZvZnxJAb488aTzs8zGczqutbaIqBmgpJGAm5UMhMqK+QrZCElVAyhN8WminKgLQXoGQdklDl5eUKVEFBAdra2lyuq8XCyoZukWKu7LzLwlMPMf30WyyPfad4yuvSI1Y2tLHpdjvqO7/mw06oD7KvoT7LjFPHj+Lq6srly5eV69y4cAQN9Y/4JNyTp3X7eHSxlBYB9+3ZXdw5uZ2vTu/Af7ElH4mBSs/JdG8hJOfSx0IGQhJGhqP0oCwBbwjZinon7QUoWVDlxXfu3KlA7d69mymiul+5XIftYie6hu5icMl9Em8+ExBPsDrxE1RIfRtpt9oZUfIzqCwBNcOY40ePKGEtk4+0h5+dZ6rmcArig3hcXcq3Z3bynQB6KPT9uRKe1JUTLjwmk4KOkKxj0iuThIYK9ROSnnsegrOFugslm5oq538BSpqHhwf5+fk0NjYqYThBVPMr4g4vXebB2wFbFagkARV9/QesT3TMKU8BtfzyY+EpGLX7m5+gMq8ybIYBnx45qCSKGzduKNdouVGL4bRxbA734smlMgVKARO6f2oHhQnB9O/bi26dg5bh9XzujBcaIjRTSCYNEyFVoRl/+Qv1FRXK+V+C8vb2JisrS4E6duwYkyZNUsLPLyCQd3wyGSSg4j57Skzji1ABdR1QGns6obYJqIwGRgioI4cOKFC3b4sDpLXcxdvWXMhMCb/nUB3axdXyTLbGBTJStTdaYsAyYTwPtUmyaHfpwoRXX2Wc2B8rtqaqqhzNzhb5p005/UtQAQEBbNq0SQm/EydOMF1U7Esi+60UNaur5yYGCigJtPbGUxac7IDyENnPVySLT76EcaV36NsJ1Su9ntEzDThcVamEnywZHdbOwYJU9CZpcPvTfFov7H4B7KEIwZbzJRzfmsCcgf3REIOX4Sa9oiugCkJCKE9JIX7uXIrj4rhRXc1T0Zs+t5egZP+WIn4goU6fPq1kvwsXzhMnOoS/u6/no5IHRIrQS7z5FJtOKJnS5bySUBP2SqjbHVCbLzNWQB2s3K9APXz4sPMqond78CWRPo6Eu9vwvQCQyeLhuY451SqShnwv59vxrFjUe/wdLVGHZLhZiMb3nuhQnopG+77oIZ+IjP1LewlKFtyEhAQF6pyo/HPmzBH15Qwb1qfwnmuCAhUhoDZ+0a4U3oL7ImRr2/Cte0KeeD+t8gEfivmkuus+vTKv8bGuEZUV+xQo2fH/3O43X2NzTDA7U8L48tNCBaRuzyau789SvKUkD/GZifZ4Yhaasj06nJpDh2l/+rTzDL9uL0HJrlp22BLq4sWLSpt0SrQfWemf0M0pjn5lbXiJZjtCzHnT4y1ENT1lvphbJkfu43fpIUOLP6frpga6pV6iS2gpMwzNKBdNrpdYZshlyy+t9cEd6s8d51zFNm5dPEhZViJRXnaKt2QoPq4uIynIFePp47hfc6jzV79tL0HJvi88PFyBksXSVKRJ2Tbt3FbMP3QX0tdnExqB65kUlIymbzyzghPR9otDxzcGE/9I5nivxsgvCuuQOBYFx5CatokK4Sm5PPlPLG9dFPpTNXkgatV3ImlIj908kMsUraFsS1oNl8RBouD/lr0ElSMWYytEF93U1KR055aWlhw+fJj6K1fYXrKHnXsr2L2vktL9B9lXdZByoYqqA1SJ9F9ZVcXhgwc5euQwnx4+pGyPiRtSWVFJVUUV37d+z12R+ZrvN9P4oJEbrU1c+1rUw33lbFyXzoYVWYwfORJH8zli/VNBa80OWqq38fTKHs5uzSDBMUqsiKM4ufoW7R1Ls1+1l6Bk4Q0R2UXWFDmncnNz2bt3L2VlZRQVFpCdsZmNKeuIFcuKqIjVrBZZcXX4KkLlIjF0BSvDQvH388PV2YXZM2djZGhEREwEVWeqKL9czu763exu3MWBpkNk5RZgqG+K1tDJLJrgxRqjLDT7TEdn1DSOJm/nzp4z3Nt7mmtbjhK+IJiB76szptdkRvxD1Dj7Mlo6mvKX7CWoE8dOMH/+fAFQxP79+0XhvcInYhGWlJikpHoZnhkZGYpHt4oiLRd+8kbIhaQs2sHLg/EP8MfV0xW/KD+icqJIP5RO3tk88qrz2Fq3lV3Ve/BxXyH6P1XmjVpCnvUxjro1c9HnPmVODbhNXInRcCumDdZh6mBtZgzSZ5baXGL0c9nnUofvtDhUuw0h2aqQRzIcf2EqT5494eHjh9z+9jZN95u4WH+RiNURJCYmKktwOXi5YJSpXgLJeVYt6oLc1tXVKf2clCzWMmyTU5LZcW4HuWdyFYi8mjy2XNxC9rlscs7nUHipCPclfrz7RnfcJ0Rw0uMWV4PhmtBVMe3k+zPedyixryPNvIKNZuVkzz/CfpfrXA5s43oI1AZ8zyrdzQzsPoKK5XWiPnTSdJpKeYMIicu72XN1D2VNZRxoPsC209tIK00jZUcK64rWsbF4I6ExoRjoGygAcrl/RcwxuZXzTkomFpnh0jPSSS1MJXVXKun70yk4WUBxdTG5F3LJvbSFxMyNdO3SDZdxK6j1/06BuRKEGPBPeg5XL7b1Qe00iO/lcfWdx8nvrwQ9xlh9EcumrKLtaidNp6lsvbSVvEt5FNUUkVeRR3hSOEGRQYREhxARH0FEXARRa6Pw8PJQWh05+Js3byqJRDaoErK2tlbpOqRXN2zYSFR0FCGhISxxW4J/cCAZ+VnsFoW05FopVqYODHp3JGe9HygD/TnMLyVhFf3Kd43CY1nzDylgX5W/+GRLRYZEzrkc5W5uTN2Iro6u4hHZra8OX82m1E2UlJQo80smC7ksKZTP6ESvlZqaSnx8AqvEcf6BQQSK+RSyIlR4zFs0xp74+vgStjwIf3cX1kQFsSp2JQP7DCF89maaVrw80N8j6b2j7l9jom5PU9GLRV1FAknlXcgjpyKHkKgQnJydsF1kqzwSk93F2rVrldBycnLC3t4eW1tb5s2bpyQUJydHXB3tWOZkR5jPUlLE7/Nz0tmSlkRZaSm7cjfjYDYTTxtTPO3M6Nu9H4fdbtMgQuj5AOVd/zXIKwEi1IQahW6I/RsC5KY49mYofB4m5pb/U0KmpfBlYSdNp/0IJbXl3BZyTueQcTCD1G2pBAQGMHLESKX/MzMzw8rKiiVLligPZ2TySE/PYGfRVlIjfInxdRSdgAPBLlaEebugM2UcVeV7OHF4P7YW+swYP5KUFc7MHmosBvPsx3kk586hpc0ULDrJZfFZgwD4TELIwa8SAw9v49CqJnaEniI9oJS1bjmsdFzPcvu1+C2OJsQ5kcZD33XidNgLUArYhS3kVuey/fx2UYti0dHWwdjIWHloKUNO1iy5zpI6eOCgsgCMD/XG396clOClrPV3xN5sFlM01Nm1NYed23fi5baUwaofojt1FHZa3jR2ziU58U973ePjvjOJNchXPHF5VTsVUVdI9snH2cYffSMLponzTbSZyiSHyUx0msT4xR8zzmE8mnZajLUch9kSSxq+auhEkomieivF9cXk1+QrGUrOMZl+887lsbl0MyvjVuK6xBV7W3uWui5lTcwapR4dOnSIY8ePc+bMGbamxuNuZUDzgTyaKnM4XZjMZI3hODrb4R3mg1+kH3Y+i+ja9W0CpifyWWeoNYptpF4GQ3tocM7jHlUxDdgvc2PgsKH0GdaXIcZD0Fw6Fk0PTTSWjGGcpxYT/ScwI0obgzQDDFMN0F8/h4HGA7FZaUObeClQkYWR+CT7ELsrlsxTmRTUihT8M8jsU9lsrtpM/JZ4AsMDcVjsoAD6+fqxPmU9MZExeDgsRFNdTVkqcL2cnDVeaEwazbIYD6w8rTB1NsXGdyE9u/VmnekuZQ7JULsS+IyxfabiOTGKmqgWLLxseP3d1+kzrTeTAieitVQLTZexTPSZyKyoWcxJmYNFtgVWW62wzrNmQcEC5ufPR3ulNsNMhtH0oKkDyjPBEzNXMV+8rVjgu4DFYYsVyLhdcWSdzaKovojt17ZTUFNAzqkc0valsSZjDYGrAlkdtZrkzHXkC2Cj6ZoUJPizQyza3I2cGDhmEK5RrnjGe+IS4YLFEgu6v9OTEoc6pc5cE2DFi87QrUtP9i6+SkpiPu8Mfoueo3tikGTAUNOhTA2aimGKISabTDDLMGNxzmIc1jhg6GiIoZ0hFs4WOKY4YpxqzAiLEZxoOtEBlVKSolzYbrkdVj5WWHpYYuNvw3yv+Vh5WWG73BafdT6s3bOWLee3KF7c3rBdaXs2VWwiPDucwCgP9KdMQfMjDfa5XWbz3ArUPhrEfM95zPOah0u4M/4itffpOoBjHneVzCe9ZT3ajfF9ZnIhrBXzkPn86a+vMmPlDMa5jmO45XDMM8yZu2UuFjkWzMuZR/SmaObNn4eDvQNxa+IwNTTFNtIWozQjhpkN48i1Ix1Qd76/w9XbVzlYd5DMikyCNwfjvsYdx5WOLPRfiMMKEW7B9lj7WmPtY41jmCPuce4sDl2MfYg9y9YuIyR9BW7WAQx4ezjVvk+pC3iM6TAHJk+bzqma0zxsayEmKIERPcdR7d+mZLzjHnfo8ddeRMzO5PiaLxlhMpK/f/QuZp+Y0WtsL2bHzMYy1xKLLAvMs8yx22JHcFgwNtY2+Hj7kJeXh4mxCXbJdsxJmsMQ/SGcaT7TAaX8K+xJ+xNaxMU/v/c5F5ousPPUThK2JRCYGsjS6KUsiV6CS6QL/hv8CUgNIGBDgPL5Ar8FzPOeL+rXEgZ0G0rYrFS+EKm4yqUJk5G2OFouYa13Gv16qrJ0YpgAalcSRYReJu+92ZPjbqLPizpPz+E9UZ3ZH71YPT4Y+wHm6eYKkJRZlhnuee7Y2tkqf7yQJSVDlBN9A33sMu3QXqXNYN3BXL93XWF5qUuX1i5eLU9auPtQhMqtBg7WHiTngKgPWSuVUHQW4SRD1DXSlaiMcPYcL+Dz242keRXQt6saOx0u8sVKOODazBr9PHynxgqIDOGdrzvmk9CwnppMUxUZU3gtc3U5XT7ogoa9BhO9JjJAZwCWeR1ekjLNNsU321dZxsiCLxuCODF39c0EVIEdE7wmMEh3EPfa7inj/1WoX9rzTr75bjPnGs+RfzifsrMlfHH/KvfbnnLyMhTu/YJoj230fLMbat2Hia6hmVsCrMb/kdJ11waIsBMw0osJxoW88dqbYu00VaTyB6REFvJ6z9fQDtNGw0EDNV01Jas9hzLPNicgLQDtqdpYW1srS6AA3wDMHM2wL7FnjP0YdBbp8FS8pP1HUD836cUf2ltofQb5+1oxtk1HbbQL7w8JovvA9czSymV6v2mM+qcWe52v8GU43JYSMLK92WC+i55/642/dgL2mn6kz60kNnYzf/7H68yKnMXohaNR03sRSiYJ72hvpk6aqrRocj452Iq5Hm7PzNUz6aXVi+jc6M4R/hdQ0k4Lz+jbVdHjgym88rYhr/Tbhop6EyrDv+G98Y9ZatSIk5YnE/pMwn96LNlWVaRalIgFoTNv/fld5o9yFRmwVXTZB6lwaSQ8MZk3+vyZj90+RstZi4H6A3+EkknCZqsNTl5OzJwxU/lDg2yoZ2rPRH2KOmr6augG6NLw9c86is7tf2zHa0BtWjGvvt4Xlfd8URnagMqox6iMESeTGg3vfQxz9e+w2qiM6f21UXu3D1YjFuI/NRz9wRZM7DdbZEgZjm3Ui6Y0N7aK/kZ96dr/HbRDRLeQYMCC4gVYFVkxr2AezgXOWC20UqBkuyaXOFpaWkpGTq9IV4Ceiddz+11QrY9hnFUTr7w+CJUegaiMvPMCzI8aBX/VBPWpj/mgtwtDhucwXfsqE7TvkmjzBVP7zRBJwpCTnt9wW8y76pBWAqIiUTXtx/uT36O/wYeMsB+OxtIxDHMaikmQEXpz9NDT1VNWDMlJyRgYGHD7zm0ePX1x2SHtd0GVHIU/DShE5a/aqIy4/zLMzyXAVEY+4Y9Dauky9gfeFJB/Ep9PnA3b7WvQVp3J4B6j2SjCsklkwCuRrWRGl+Ec6IPRMnO0XWah46aLme98AiJCmDx5MuZm5sojBfm/Bnx8fDpH9bL9LqiVn4gfDK5GZcABVDQ6B/9bGtUutlLyfYckmLkRbHW4jucEf7Q+GIvBEEuSDIs44N7EudDvOBLWTPmKesqCazmyopm8qFLGjtNQlj4ySch5JReo/8p+F1TYJjHAMT+IQT75aeC/VwLsf4SHh2uDi+l9lhsew3d6Ek6ay3DT8iV0WgzrDLLIsNhJgVUlV/y/Z0NwFuMnjlP+ICiThHwWWVlZ2Tmql+13QZWLfrHLBHG3RSi9Nrb9v9YfNdp5VWzfFQlFdRpo6bSgM6sZS73r2OnX4mp4BVfjJuyM7mBn/UQseWT4TSQoKEhZ0xkbGyvPSv6V/S6o/x8G/wvZpIV8d7gnvAAAAABJRU5ErkJggg==;" vertex="1" parent="1">
          <mxGeometry x="118.5" y="120" width="53" height="45" as="geometry"/>
        </mxCell>
        <mxCell id="3dIoNDV1uIik2_dfb_1X-3" value="" style="shape=image;verticalLabelPosition=bottom;labelBackgroundColor=#ffffff;verticalAlign=top;aspect=fixed;imageAspect=0;image=data:image/png,iVBORw0KGgoAAAANSUhEUgAAAD8AAABCCAYAAADg4w7AAAAAAXNSR0IArs4c6QAAAARnQU1BAACxjwv8YQUAAAAJcEhZcwAADsMAAA7DAcdvqGQAACbiSURBVHhe7Zt3QFZXuu4z596xA0oVUGwYa5w0S0yiSexdsfcawd5brFFjbygiVopIUUCQ3nvvXRFLbLFXBEH0d9+1kZnMOWfOmfnvzpmzzGLvb3/722s9b3ne5/0gH71//55/xanGR9rPf9Hxv+D/Vcf/gv9XHX83+N+zZHV19Z/Pa8fv3/9nGf8Q+FrQb9++1c7VsXbUglfX37179+Hq/9/jHwp7BarWAL8HWlVVpRlCnaup3vtnGH83+FqQtQaoBaqmAv77KPhnGf9w2NdO9bqyspKKigrNKLXRoIzxP87zaijvvnnz5sOr/zhqI+KfZfxD4Gs9+upVGZ4XLuDo5ERkZCR379zRrv+zjb8JvtaLKrSVx6sEeLVc9/L1ZviQQXzeuQMdLS35tue3DB4yklnW81m3ZQvxaSna59/I3ZXvqikvq+BdlUSDShWEM6iUo/DDe3VNblTHD1miDpI0VH9Ioeq38plqufJWuKVSbtbu126VIffU3C37lGe+q5JLckNVJe/kM+rWt3KvmioW1VS+q+UpNf5T8Gphlcdq1uZ36e1brNn1C12+/BP1/vgRhg3rYNigHvq6TWigq08T8+a0//Jzvun/PSc8HQW8sL88q7JCNlMpW5R0EZaQaxXaUduJ7FeQKhzaUAcFp0rWrBajVFWKsSrFUAK+FsV7ub9agVPcon1GgVfVRp5f/VabVfL+G7lXPV6b72RFub9ajgpLbQT/p+CVp8vLyzULvX79WrsWk5RIs47tqKtTl6Ymuujr/JEmOvVoot8EAzNzdExMaNq2Jc0+tqCfVX8czztSVl7GW9n82zcyFSn+GbzykmxABcCHjdTArvFm9TtZv+IVz5494vnTJ1TJc6or34hHFdDa+2vsVvWXl9pQz1N2UqBV/VFT3fNWPvdWIlFb478Cr0ArYlMhr7x/7do1xkycQH0jPXQNG2Fo1AADg7qYtzDGyMKERqYm6Dc3p1UnS1q1a87HnSzo1bc7x0/YC2ghyXJJHXmWAv1ewGtbU+H+78DXxPVbHjy8za3bVyl7/ZSnz37j+bMHcrzPw4d3efHyGRViiMqqal6XV/NS5pPnZTx+9pznr17zQqrPqzeVlEnUVEjaKPDqyWpUqciQ9VQ0q/E3w16BV8DV8PX1xbxZM/TNDDFpZoiBcQP0mzbAtI0Jes2NaNqxLcZtLDBvbUar1sY0b9aItpZGjBk9lGdPn1L5RtJHoknluhbyGmrxtOxBObIGvtqieq+Kq6W5BAZ7kZWXxP0nN3hV+YSHz2/z5Nktmfd49OQhT5684PnzCh49Lqek9A45BZfJLS4hq7iQjPx8Ci5f4fa933j24gUvXr2UKHzN85cvNMf+l+Br812F/5UrV1i6dKmAb46+sRHGpvqYNjdA31wXPQsDGluao9e6OUatzGlj2YymjevQ3PAPzJo4kIToIEmfV1qOvtM8rMLuA3gV5nLpL+DVNfVeBXn5STi62uF5yQXvEHcyS9K5/qiEe48v87xMvP/iIU8fPeHV03JePq3g8aOX3P3tMVduXCcpN42IuCgiY6JJy0gjryBPm4VFhRQVF2u4/suwr815dVNeXh49undHX98Q3caGGBqL502aoGvamEbNDGjQ3IR6TY0k740x0KnD151asWXhRILcDvNePFZdVc4beZ7KzxqYCmQNeAX8r8ErDVFObl4iuw5u5rDjAU56n8Y10genwLMERp2joCSZu3dLeHj3Fo9v3+N6YQk3S65z41ophcV5pOUlk5qVRFJyPPEJUURFhxEWHkJUZAQx0VGaKKsdfxO8mmqkpKTQpk0bdHUa07hxU5o0MaJxEz0a6utQ37gJDSXfdQR8Y72GdDDT58i6RVyy20yC91EqX92W55RRLrn2RpUsBfN9LRWpcqQVvRpPqOvvy+WVCuMsJsyyYtiMUSzdt5mNTkc55OvMGR87zvocx9PrDN4ejuQkxlGSmcHV7Eyu5KdTcjmTguJUMrMTycpOIzs7lbj4SIKC/AgO8SciIkx47L8B//u8iI2NpVnzZgJOQlzXDP0mxhgbG6NvqI+OQWOZ+hINTWiqV49vLU3w3L6C2OObuXR4DfcuJwmwSvHne14rplYuFiZXya5YXVX9vwavNlbB1Wu5LNu4jKE/TqbblDH8afpkJu3chPXWxZz2d8Yn9DzubicJ9nblSnocxclRYoAEfr2aweWiJPJyk8jJTiE3N5XcnFQSE2IIjwgW8KH/PXgFXDG9GhkZGYyfME4M0FK83gw9HQn5hg1p3LC+lLsGmBvr07FFUzoZ12fOd52JFdA5jpsJOrCMG9lhvK2WkvWmnHIBWANeiE3Aq38VAv2vwauwr6TkZhE7HWzpP3cW3yxYSItJ02g5SQwxYzxj1iziB6uBrFy/BHeXowI6lryEQK7lxHKjOImC7BiK8pPJy0kS4MkSDTlijHRiYsKJjAj578GrzdR6/urVq0ydOhkdvcaamDEyMMBUX48OFkZ83qY5XYXkurXUZ+PUAQTunkfJuY0k77cmcIcNN3JCBOtrXlVXSTDX5LcGXuptLXhN4/wZfA0ZXr93k4OuZ/lqxmxG7jrMF+t20nHFFixnWmM5YSJdRg1l0OSR2DnsprQglvwUAZ8bx5WcOHIyYinMTaYwP4UCyf/ignRyJQr+bvBqqJyvrfe7d++mTr266ImX9XTq01SEzpAenZjSrwfDPm9DP0tdji4cQpHrGvIdZuI5vzcRYohnl6ME2HOevhVWVs9T4LV0V/ku0lf9FOAaeDFIDfh33PztHgfcvei7dD3DDzjS+SdbvtjlTJvlO+i4dAPtp0zj++njORfgQk5OGHkZwVwtiKMoJ5EC8XJhboqAlikRkCvpkJkWJ4QXIuCD/z7Pq5KgwKt5wcuL1u0saWDUkLr1/0CnViYc27YKn6M72btwEqusuuO2bhSl5xZx6+w0cvdN4arrdp7khchzHvFCQL1S0aSBlx8SVeJzXstPrQQqqyjwmj5/R7msbesdjOWYH+m4ZBdmSw7QeOkhDFce5as9jhIBNgxbuRCnIFcS0gPFw5Fczo+XcE+nID9XDJBGSVGqGEGlQQJZ6fFEhQcK+H+X88oHNfMv/yo/1EIV+up4wfMC48eMpmHdP2DZtC7Lxvcm5tgaPNaMIsN+Phm2s8m2m0GpkzV33W24dnoRRc6buJvqQ2XZHcliCfEPGOVUTmRFASmCVXup8L+Xa5rqkWtKBx7zC6TF0Ak0n7oKi0UH0bfZh/68nZgu3ov53A2M2bEX96iLwuzBlBbFCuAECgtyyc/JJy8rWQwhxJcdL95PlWsphAT7EiqMX1FRppGtGh9Vy1I1fqj5p8C/lU0oKajVRNlYUUExMydPxrjuR1h93RaPLdPIPGpD3oHxPHCcxS37iZTaT+bqyTlcPmVD8ellRO6z4VaCp6TyA2ksKrXGQj1LW1dFlCBWGSC+rsl7dV29r9aXk+N+F/li2mxaTVmGyfTtGM/aicms9RjO20/DGVvot3k/EUJql/PDuJIVJgBTJdSLuJIrYkZKXF5OgjaLBHxhXpoA9yM8LJCKN2XaGmp8VCM5a31es4MKyXOlnzVlpjokkafLFs1n2LefsG/lNKIdVpNiO4u7Zxdyy2EyJYesuHJkEpcl3wuOzyX3xBISJTIeFUbI854LwCoBL0/+Hfj3GuPXUEAN6cmJBr5mR/Y+XnwyYSrm4xZgNusXmlnvo+XCHTSesxs9ed1z9U48REEW5YWTmxooHs4QJxVyNbeAkoJM8kUoFYg8LpD8V+BjokOICA/iTeXvwGsm//2UUflWpK2ArpLGQG3stXRl3t7nsd+zjuPbF3F+tzXBOyYSs204hbbjyD84mnzbiRTYz+Sy42LynNaR7LSNe8Vx8szX0lWpUFawZHzI7/dyrRZ8TRWQWXODpEg1Yfk59Fm8EsMRs+m60Ynee335bPMJDBbY0nSpPS2mLWWd3X7S0iTns8MFeIaAzRfweZRohhDQivCyEjXwyUnRWtiXV4i+11ZV4CW8takRjqwuLlDgKwX4S5G49x8/4eqvd0nOSCUtwR8fp114HV5O4P5ZxOyfRPLecaTsHUv6oamkHZ5FxrF5pJzZICpvA1czI2UJ0QzyU9V5DZty8e/AK7lTw/ZqbfWfEJ6Ajy8twWrjz+J5G3pucaL7Njd67nbH8mdPmiw6SvPpq1h+aD8hEee5UpSgiZlCIbubRQVcFnFTWCBlrjCVnMwEjQAz0hM0z5dXvJT1asErGauB/7ABmarpVxt7VvaapJwcErJzCBOVlJQSJs2KF5Feh/HYa4Pf7hn4bLbCZ+NwArdNIHT3TKJt5xN89CcyQ9x4dv+aeF24Q571SoypxZWKLq2s1SSZMoEyRC149eN5ZTkpN2+wyf0CllMW0XHxHgbaXqLvEX8st3lhuPw0xlNW8ePOnfgL+KJCKWeZKsyzuVWcz2XhggIJewU+T6Su8ny2kGBcbISwvfp+QtuJ5LwSM4qM1Gtt8Zrxm3RNmYXFxGZnEykqLyw9ifDkCIIjLhJw8SRh5w/he2wd9qvHsm9efw7OH8jZzTOIPLmR0gQfKqQVff+uXJO1ZZI7FeLdmiUVcFXSlM/VspLhcv4X8JJmIoqii/JY7+xKmwlzsZi2hs5LD9B+lR3mq51oOM8OS8n/2bv3EJseQXZeHBnZEuI5ovPFy5el3ucK2Snw+aLyCiQSsjKTiI4K1Tz/rtbzinWrxRNv3lRKJ1dB2etyaQ/vk1N4mfjMbBKlq4vKySYqLwc36Y4C4sK5GHCeQGk3Q31OcHzXcunixnJ82yKSL53hVmYYT27mSDK/kMeL1wXxawFVI18EnwZcMYBqdD6AV+9oL2pSQH3fU/z4Htvd3fls1kLaTl9Jy2lrMZq+niY2h9BdcFRIcANz9u4nIS+BDFF3qpMryM/iSrZUAAFfy/Z58lqVOhX2YaEBlJU9+0vYq009e/2Kl1LWfv3tN3ILi0iXWhmXlkGihHxSYaEAzyVarvskp3Je+mT3QD/cfT246OeOm4s9trs3UZAWTUXZQ6plVr1+KJFdJj5WX1oJeJk14BW434EXwDXg5aTGEso6cuUd9948Z7e7KyN/2ozZ4ElYjJ2HxYw1mC46hPFie0zEGDYHbYnNiSc9P4FUAVhQmCWelzDPjBNlF0++nCvwOZISqalxBAX6ioNfyBIqqQX85Qf3eFxVwVNpZHKuXhHFlEFMYioxqemkCODk4mIic7MJFxb1Sc7EKTgcRz9/nHx8OB9wCXepAqGimX/77Y7sX7ZdLX4TPf9OVJ0KbNWqKIGj4ComUddrvs4Sf8t1VfAUbg242pMqg3LyoOwpO844MHzpEv5Ph8/R/24obactwmLeLoyk1ptNX8PCI3aEpISTJuDTRN3lio4vEbFzRQkeYXoFXrG9Un6FYphgaW0V+BpLC3jPxCjuvHtD7t1bxAhhJOTkEicGUCSXVnyZxIICIrOziBYBcSkpk4DkLDxCo7B39eScXwCe/oH4BAWTkJoiYkZITMhLgVPFTflUgVZBpnldXZeeXQW2Wl6qqQZdnSvO08BrDVUVT8oeccbXjUkrl9B+0FBaDxhKyxET0LVagKn1TlrNWsMPNjZ4hl4gVXm+II1MaWiuSAqUCNlli/cz06OlEmRq4NMl7IODLvHs2cMPCwn4A0EXyHx2n7gblwnNzhBLphAvwOMk35NyJfxz8ojJLyBGUiHzynUiUrIIjEth55Hj7LC152JYJB5iBC+JhrsPHmjgK6tVy6KUY61sUkPBV4L2tRxVViuuUYapIUINvLKSuiifvfZrMUEJwZzy8+SnI7Z0HjgIi34D+ejLAdT5YSr6w2fSdfJEXPxdScqLJzkvhTRh9ityXpwdJ16XXBfPK5FTUpxNcXEOPt6ePHv+SNuLGh9tuHCKhEe3CL6ah0dCNHvOnCIuN1cDniRqKUmkbXLRFTIul1JQco28y9coKP2ViIQ0HD182GfngF9oOP6hody+e0ccJ3runWpWlXdrFpETmapfkHRAaeuasP8P4LUwEa+8V19M3iQ0zp+T5x05HxXGPlcXOgwZgrnVjzSbtYl2c9bw7ayZ0tm5yT7jSBIZmyYlrrQwUeq8NDmFKSJ0akSO0voB/l5s+3kDzwW8VlplfLQj2IuIe9dxT4ljr4sjgYkSQkJyyRr4fAmnYtKLr5J39QaFV65RfP1XSu/cJ7/0Nv6R8ey0PcppVw8yJT0ePH4sPYF4XMBrVKcRS00qVAv4twJKSR4VEeo3QBUf9ETNLxPkzip5LU1VtUROVfULWSOTqIxIApPDxQABrNq/mzGbttFz2QYG//QzkzasxCvWl4wSRc4S6nmpEvJJ0tcnUSTlLUe6ucsidZ2EO+yOHuTwkf28Ei5RDtLAH4gOJ/BGKWfEc0dczpKclUuaAi65r/I+Na+A7OJS8iXk88UABddvUSiKL6vkV2Jzi4T4/LF3dpeymMXdh48EpHiyWoBLjX8nffw74RMlZN5IOS1/95aXQqwvBeBrua9Mpnb/B0/UDkWC957cISwxhP2n9mB7dj/ngs9yzt+TQ64n+PnUIUYsnsbQ+RPZ73GM0PQoMgrTyFHdnNTzUqn3xRnpEgFZXBa94OrujIuHM7cf3pa9qD+s+DP4CDxzc3AKC8cjIEjYPlMMIGSXXyheLyCjqJi8khsC/gbFN26RLUaIzcwjPqeI4KR0EUGFBMQkEp+RxYOnzz54Uqk2mXJ8J0e12FslmeX4pqqSN3Jerr7cUPcK8Co5j49PYvPmn1m1ejUnnU6z9/Be5iyZw4ipw5m9cgb7HffiePEsbiFeuIR4cuySE1tP78NWwIdLdGQXiYoTKZuXGit1Xvr6zDQpc+nMWzCXg/YHcfE6R2B0MA+eSxmuLXX7IkM5k5KEa1Q0/rHxRKekSY1PFwZVIa8MUCSeLyG7sEQ8f530witEpGYRJsTnFS6SV14nK0NJhDx+8VIDX8tbtZr9vbJ0tRQ9aSffV0k0VFZQUV7G06dPCAoOYc3adezddxD/wBCi4xNxdnNlzkJrhk8cwbDJw+g3rh/W6+dxxt8d5yBP6eN9cA71xDXMA6dLzkSmhZGcGUOelLirouqyJdxv3ynlhKM95pZmrPh5DcfcTrH3uC33JOdfq70o8HvChVGT4nGPiyMgXlRQQgKRSUkkZGVK2VOsn0ViZg6J6dnEp2cJFxSQLuQXl1NIcHIG50MjCUtKwSsoRAjxquS1tMAC+I1YobJKOF08zZtXvC97TOXj20JqYoA3r4WRpWyKVkgRYwcGhVJSeoNnL8t5+uo1dx485IIIqRWb12I1cxxj545jxa61zN+2kgNux7D3OsXWYztw8nXEM/AcwdEXyRSJm54ezrUSqemX0/G8dI4xM0bTa9h3zFj+I9OXz2XEzPHcff6Yl5KKGvid0uAfj4vGLS4Gv9hYgmJiiRDSi8tMJ042GJmaKq+TiUxMISoplbiMbFKLSiTc84mQ8L8YFcuF4DDO+VwkMCJc2t9yMYDm8BrCK3/Os2u5FMb4yvTjhpSgq9miCV48497NW1J6XvDy9RuevSrnRbkcy8q5/eAx+cJDIYnRrN65kdE/jsd641Lmbl+BzbblzN2wkD2n9uFw9ojk8nGSUsO4ej2DvPw43D3s2bB9FaOmj2Tc3PEs3rKMVXs2snLXBpZsXcPdl48pe6f0poDfERaAbWQIZ6Mi8I+PJzg2hqhk8byQRWJBrgY+PDGJ0NgEYlLSiRAvh4ghEvKLiM8r0sArseMVFIS3KL4ykcla9y4eLnt0nefXs6TRuYi/w1Z+nj+GpVNHMH/6OE4eO0pFxRteCeAy6SueitefixFevHnLU3nG/bKXvJQECk6NZvKimQydM47RK2cxc+NCJi6ZyqYDm5g5bxKDh/dmgZDf+k0LWb9lEaPG/cBQSZM5K+dw4MxBug/6mk/7dGfM3Mn8Yr+Px9LYqO8LNPC7IoLYE+SLS0ykJnAU+Nj0FGlosogS0ojLEVkYGyfpkCjhFYuvEOPFiCjxfB7Rkg5+MXF4BAZy3j8Av5AgHjx5LPn9lFf3crma4kuKnx1etivZvdiKxRN6M7rvFyxZMJPN27Zw58lTiZL3vFK/dZXNlEmNfyht9M1Hj7gUHcX6vTuYtnweI2ZPoO+U4fSaPpQJK2axcOsyVv+ymunWk+j+TRd+6NeN4WP6YDVpANPmjWHX0V8YMnk4f+r9BY1bGWHawYL23T9h1JRx3Jf9KW2hgd/ofwG72DDOpyRwKSEO7+AgolITRTSoVjaF6Kx0zfP+EVJvhRR9QkI18BFCioGSDt4REfhGReLudxGfwEskpCVTmBZIbsQJUv1tCXXeiN36iRzfOpvDP1tz9uRuzrmfYb/DUZx9L5FfUsDDZ49IyEjFZvlSxs+eydT5NkyYN4f+E0bRf9IohswYQ+8JA/l2ymD6TBvGePH0gg2LWbpxCfNXzmXBKmt+XDZTOGIxVjOGyxxDy8/aY96pDQ2aNkHP3BCT1ua0bGfJHWneaqAL+M3B3hL2QXgkxxGSnoyLzwUcvdwJTxXiy0zBX/ggOj2NS+ERMsPxDgnBNzJK2D6VoKRk8bxwhbz29PfTwEfGRxN50Z5Ql/W4HphHgON6Qt1+oSDRQ8qQP2mpoYTFBeMt7fFBZ0d+2roOB2cHvh/alxadLPn4yy7isZ58P3ooA6eM5vvxgxkwdSQDpg3nuylD6D1xEP3FAENnjmbYdCtsflrM4k3L6Tt2MCOE4PqPG0KX73rQtvsXtPj0E4zatqapZSsMzM3QNTDknrTrteOjjdKb7wnxxSMlHp+4KBwvuLPvuB32bo74xUXgJs2Af3SkEGEMFyUqPAMCZOPhhCYLAWZlEZGRwcXwMAJjoggRweR96SKHdyxlzZx+bFkyhus5EgXJF7lxRfrsohSu3yoU7ZBOZEos3sI3R8/YSo+wlUHjBtGpxyd0+vozLLt9QsfvujJs9jj6Th5Kv8mDGTR9BP0k9PtKOPeR8vf9pKF8O2GIRIJEx4xx9B43nB7DBtCpVw8se3anxZddMenUGZOOnTBr3x49M3NMmltwTypJ7fhojY8rm7zO4pOVon1ZYX/WkRMC/Jej+znl7S5dUwDngwO4GBqCX1ioeNifC+J9f+GBiEwph6IHVGT4i14IlNbW1dOV4QO609qkPp93NOekw27u3ishXSTnrfs3a+ZvN0iXJiQkwg833zPYuxxi3Y5VfD/iewHegRZffIzFlx/Td5KAmzyIXuP70GfiQIZMGcVgCem+00bwjRih55QR9Jg8iq4CvOcEKz4bMpC2Pb+i//TZzBQZPHXtejr3GYBp5y7ot7LE0KKVVJIHvwv7IC8WnjzMUSE9z6hQaVXPcMrDhQOnj7L3lD3npRReECLz8L+kgfcWVvcRz/tIqIdKJUgtKSEkIV6IUKnDZLbv2kaDun/AsHED2rSxwGr8WJGeBaQU5lNy5y7X7tzinhggITaQOBEr/tHnRcLuYuXWJYyePZqOvf7EFwN70KJ7W7oO68mAmWKAqQP4flwfBo4exCAB/PW4AfzJqg+fThzCZwL+s8mj6TFlEj/MkKrwow39rRcxVrS/1cr1GH/RA8NOXWjaoRO65s24IeBrvscR8FtFLq50OcaG03bYujlx5qIHpy+4sv+0PRsP7eKklxtn/byllisjBMsxWJg4WmYMwYmJUhHSSSnIk5KYQEB4EEcd7PimV08sWltQV0eXNl0+Z8ikmQSKFM4uvU7xtSvculnI3auiIwKcOOuxj6Xrp7PtwCrW7FjGkKmDGD5nFMafmNHh+y5igK8kxJXnB9B7eH+6D+tDv1kTmbHjJ9a5nWTSjs30WWTDTk8PUm/fJu3ar8RI1xkqjZdvfgkDbJbSc/x0vps8k4+//o5rjx5rX7Bo4HeEuLLlwgl2e55ivd1uDrmf4lykP6ekz99gv5cNR3aJQc7hFnoJ18hIzgYF4ivkFxoVIzkueR4fI5ogkzipCurc3dubgKhA1u/axB8NG1PHpClmnb+g5+CRQmwu3Lp1haLUYB4VhBDgsIoT+2YSFbQPFyHGg3arWb11HhMXjOPLwT1o07M9rbq2oduQbgJ+ELM3rRevzmGk6P9lp06z+uw5Jm3byaSfNpJ5+w63pXQ+Ecl8W7rLnFv3yH30iiNBcdgccmbqzhNM3HSQyy9Ff9SC3xXmyk7Ju4O+Lqw+sJ1NAviIlzPnk8JE9QWx4/RhHM47iaa+IHraH9cAX/wl7MPE80FREvpJiVIVxKs3b5Bz46YovUtsO3yALcIZvcZY8ZG+IXWbNqd91x70G9Sf5Bh/rqf7czX6DCVhhymKP0ZppgsxoXbExpxl58E1osF3iLJbS5/x/TFu35RxNmP5Vvhgyurl9Jo0nl4S3qM2bGLwWlFuZ6QP2HmA00GRZF27RVxqNsk5+aJZMriUliNEXsAyBw8WHXVnkRihROTzq1rw6y7Ys979KEcC3Nh+ypbV+7axaMcG1onHZ0kJsZo/A3tPZ9xDfXAL9uS8cESIkFu4EJ6Swt5S+/2SU0m6fpPUazfZKv199+EjGLlwATPXbxDSmsK/GRhg+UlHOrRvwboF48kPP8P1iGP8GnmYezkeJAYeIibwKMH+x7kU5IybjyN2TkfYZrsdKylno6ePoq2Q4HcjB/LD+JG06/MDPaYpA2xl+Wl3Jv1yiPHrdzF7y34cfCNx9AvhQlS8RLEPez38WG57hoV7HZj78wFuSPOlvlTVwK89f4wxW5ay+8IZ9px1YP2hnYy0nsroRbOYsnahdtx58giOvq54BbvhFeBOoJBgsHjdP0bKY7w0NWJlz/hkQrMLpPV04cctW1m4/wC2kgJH3F3p2O1TjIx1aGNWD2+HDfwaf4Y70XbcjthHaaIzyYFH8D27g9y0S9y/X0yulMSACF9OyH7mLp5FJwH+9Q/dsLA0pe2nHcUAYzHs2g2rtZtZ7nSBsTvsmCJhPX6rHdYHXCRdXdh9yoVNdidYuG0PNpt3SLmcJVJ3FNfuP9I6Tw38Mlc7PpOeeYOqt452LN76E73GDmHQnAlMEwExeM4k+fAanPwEeLArvuL9wIhgKW1R+EbHcT46ET9pdtxF5l6MS8DB1RV7H2/c42PxT4vH4dwJun/dBXODOozu3ZaSmNPciTvOrchD/Bq6h3ifAwS67iTS14EXD4t4+ugat++WEBjui/2pI0yZNQHzVk35pndX2gr4Zq1N+VQItYfVaFp+04eJ2w6w6NR5Zhx0ZpN3rBxdsd5+hEmLVjJ+wVIsu36FeYfOmLb5WNrbtvx677cP0AX8cs/jdJkyjLHi5S3HD7J8x0a+Gz9U2FF66XnTGLNkLmMXWXPg7HGc/ZxE2voREitej4zGK1SkbVwiMYV5pFwpkI4vgYt+HtiJEfefOsSazUvYtXMFsyb8gO2mGeSH2nMv+Qy3Y45xI/wQ9xMcxOsnyEnw4s7VZB7cL+L27SJ+vXsVN2/RHzs2YdjMkCZNG9O8pQnt2pjRopUZrTu359Mf+mL25Vd8NWU2P9is4PsFwhGL19Nt5lK6DJuA6SdfoteyLYat2tDE1AQTU2PMzZvKGnc/QBfwq31OM2D1PJp99yUz1i6RUNnFVNHKX4visuj5J74dO5wV+3aw7tAe9rse56S3G0HS/ARI2PtIzQ9LiJZGKBrfgLP8tHoW+zba4ON+EC+PA7gc30Cs7yHivHZRGnucB+kuXI+y52bMCfKDDrN70QiWzLUiLNCJ66WppEhrmpkn5TMpgjFTxzLVZgaT506jsbkBBqLRm5mqv/xqjL6pkSg2M0w7fUK/aTMw79aTFr2+R++TT2nQsTONPpbZqh31TZth0rIFJmbGmJnI5+WzD+7f/gBdwG8JkZA5/AvthnzH4NkTWblnEwu2rhRxMUYe1po2vbvTa8Joxi9bwmp7Ww5LDp/ycCNMBFF8fDiJ8f5c8rJn+uhuzBv9JYHHVpEjwC7HnqQo8ii3k05xPeaIAD5Kceghsi4dJPXiIX6aM4j2RvXRb9KATdKQhIZf4ILfWQ467GOq9XS27P+FOcvmMWT8CJq1aymaoR56TXRoLOWzvq4O9Rvr0dDIgG8GDWDo5PG0+vwTDNo2p0FzQ+qIlK1n1oImFi0wtWhOc3NjmovxWpo24eG9m2i/KFXg1/idY8aRHQxdbk2XAd8yTxjeZtMKpq1bSMten9NatHLPMaPoMlj09YL5IoTO4Smix0v0QKy/M4c2z2ajTV/2LuqH186pZLmupejiVkpD9lAStJvSsH3kB+wiynktzrt+ZN+6ycwZ3QsL/fo01atDPZ1/Y/FKa9EM0hFmxUt3Zs1IaWiWblwtWv9zGoq36hrq8EdRjPUEsK6RPk2MDWnzcVt0xRhNzY0YJypvyKj+dJX21qy1vN9SmpgWrdBrZoqhREmLZsa0a2VOO7n+8LdbUPu7ujX+7vx4fL8opo1Yfvs5g6ePwWbjckbNn0qvKSMxFov2njKRwTbWjFm5nM22e/H2dubIz4twWD+ZE2tFvKzoR9CBKcTazSL1mA3ZLsvJPLeGmJNL8TtkzeltU9k0bzAzRvWgfTNdDHX+iJmRHvp6dcWLdendvxebd25m697tfCPnugK4dZf2NDE34d906lPXQBddydt6BvrUbSKfN21Kz2++Ql9fB50Gf6SdeLxbjy5Ml07PorUBxkKKxpatJWJaY9nekjaWLWhlYUprCzMJe/V/hXzo5zdHXsL65CGmblvHx72/lD74Y2aL16essmHo/GkYSYv5rehm6+3bWLZ7G+s2r+TE/rUE268m8uAc4m2nEX94EnG2k4ncP4FE21kE7ZmB88Zx7Fs4kBVTv2F03w5062JGl07N0WlUj0Y6DdDVbUTDBvVpJGB0DPQwEjJq3sqCLl9+Ssu2bWjXpRPmrVtSR09CXF+POk1UBDSmnr4uDRo3omOnDtqfvBqJYYzk803N9PmsW2d69O4maTOVjz/rIPluipHku2FTQ+1PZo0MDaWU3tOAq/HRtpgg5jgcZNov0gH1+5qOX3/K7LULmCyh+K2EU8eBfRi+aKGkgUjKLSvYunkhp7fPJdlhMUUnrMk7Mp4c+wnE7rMi6BcrHBd/z+ZJXVk44jMm9+uIVf9P6dK5mYSqDo2MRO5KvtZtJID19NFrbECDRjo0kT77/9apg56eHh07d2TXnj20kzbUwMiQRnJNt4l4XEeMIJ/XNTXkjw3qaGD0xDCGhvo0bNQIPTnqNzOnZcf2fC3pa9LSQCJIB10xWGNJk0aN9eU5htqv1GrH3/wjxP/5A/4fpx7mc2QUN6sAAAAASUVORK5CYII=;" vertex="1" parent="1">
          <mxGeometry x="120" y="320" width="48" height="50" as="geometry"/>
        </mxCell>
        <mxCell id="3dIoNDV1uIik2_dfb_1X-4" value="货主系统" style="image;html=1;labelBackgroundColor=#ffffff;image=img/lib/clip_art/computers/Virtual_Application_128x128.png" vertex="1" parent="1">
          <mxGeometry x="220" y="187.5" width="70" height="80" as="geometry"/>
        </mxCell>
        <mxCell id="3dIoNDV1uIik2_dfb_1X-5" value="" style="image;html=1;labelBackgroundColor=#ffffff;image=img/lib/clip_art/computers/Virtual_Machine_128x128.png" vertex="1" parent="1">
          <mxGeometry x="338.5" y="197.5" width="80" height="60" as="geometry"/>
        </mxCell>
      </root>
    </mxGraphModel>
  </diagram>
</mxfile>
